<?xml version="1.0" encoding="utf-8"?>
<svg viewBox="0 0 42 42" xmlns="http://www.w3.org/2000/svg" xmlns:xlink="http://www.w3.org/1999/xlink">
    <style>
        :root>svg {
            display: none
        }

        :root>svg:target {
            display: block
        }
    </style>

    <svg viewBox="0 0 24 17" id="arrow" xmlns="http://www.w3.org/2000/svg">
        <path
            d="M16.161.256a.843.843 0 00-1.21 0 .864.864 0 000 1.206l6.134 6.178H.847A.846.846 0 000 8.494c0 .475.375.865.847.865h20.238l-6.133 6.167a.88.88 0 000 1.218.843.843 0 001.21 0l7.584-7.64a.843.843 0 000-1.207L16.161.256z" />
    </svg>

    <svg viewBox="0 0 40 40" id="coffee" xmlns="http://www.w3.org/2000/svg">
        <path
            d="M15.995 25.146c-2.25-3.853-2.255-7.86-2.026-9.724-5.27 2.524-8.422 7.942-6.3 12.799 2.498.25 6.002-.513 8.326-3.075z" />
        <path
            d="M16.574 26.078c-2.052 2.192-5.577 3.429-8.268 3.265 2.457 3.57 8.991 5.14 14.877 1.696-2.52-.616-4.897-2.415-6.609-4.96z" />
        <path
            d="M22.731 18.077c-3.52-3.925-3.812-7.67-3.328-10.128-3.637 2.099-5.413 7.479-3.988 12.962 1.59 6.269 7.242 11.01 12.543 8.623.165-1.76-.053-5.712-5.227-11.457z" />
        <path
            d="M32.525 16.294C30.91 10.048 25.512 5.731 20.6 7.4c-.718 2.35-.617 6.126 2.935 9.975 1.611 1.908 5.594 6.426 5.52 11.544 3.264-2.31 4.79-7.413 3.471-12.623z" />
    </svg>

    <svg viewBox="0 0 40 40" id="mountain" xmlns="http://www.w3.org/2000/svg">
        <path
            d="M19.02 7.442c-.161-.278-.508-.414-.774-.442a.876.876 0 00-.76.47l-3.111 5.862 1.632 1.882 1.508-2.449c.321-.52 1.169-.52 1.49 0l1.509 2.45 1.771-2.093-3.266-5.68z" />
        <path
            d="M23.75 15.697l-.517-.9-2.081 2.545c-.172.24-.42.395-.742.365a.875.875 0 01-.712-.419l-1.453-2.361-1.453 2.361a.875.875 0 01-.712.419h-.033a.874.874 0 01-.709-.365l-1.894-2.283-8.34 15.625a.906.906 0 00.02.88c.16.271.446.436.755.436h9.9a2.71 2.71 0 01.17-2.21l7.801-14.093zm3.2.713c-.311-.562-1.225-.562-1.538 0l-1.838 3.304 2.608 2.881 2.607-2.881-1.838-3.305z" />
        <path
            d="M34.887 30.67l-5.226-9.325-2.833 3.196a.875.875 0 01-.676.32.876.876 0 01-.675-.32l-2.833-3.196-5.167 9.325a.902.902 0 00.007.888.876.876 0 00.758.442h15.879c.312 0 .6-.168.759-.442a.902.902 0 00.007-.888z" />
    </svg>

    <svg viewBox="0 0 42 42" id="cart" xmlns="http://www.w3.org/2000/svg">
        <path
            d="M4.75749 16.6639H19.534C19.5785 16.6639 19.6191 16.6793 19.6608 16.6909L20.024 15.5896C20.1395 15.2394 20.4896 15 20.8863 15H22.6895C22.9384 15 23.1403 15.1862 23.1403 15.416V16.2479C23.1403 16.4776 22.9384 16.6639 22.6895 16.6639H21.5541L18.7376 25.2046L19.7895 26.337C20.2053 26.7846 20.3925 27.4013 20.2011 27.9637C19.9564 28.683 19.2684 29.1429 18.4752 29.1429H5.55956C5.3106 29.1429 5.10876 28.9566 5.10876 28.7269V27.895C5.10876 27.6652 5.3106 27.479 5.55956 27.479H18.4752L17.0463 25.9406C17.0103 25.9019 16.9839 25.8583 16.9567 25.8151H8.22114C7.52243 25.8151 6.88661 25.4428 6.58909 24.8594L3.44341 18.6913C3.35319 18.5137 3.30564 18.3167 3.30564 18.1213V18.0035C3.30564 17.2637 3.95566 16.6639 4.75749 16.6639Z" />
        <path
            d="M17.8274 33.0001C16.8494 33.0001 16.0565 32.2805 16.0565 31.3929C16.0565 30.5053 16.8494 29.7858 17.8274 29.7858C18.8055 29.7858 19.5984 30.5053 19.5984 31.3929C19.5984 32.2805 18.8055 33.0001 17.8274 33.0001Z" />
        <path
            d="M7.20183 33.0001C6.22376 33.0001 5.43088 32.2805 5.43088 31.3929C5.43088 30.5053 6.22376 29.7858 7.20183 29.7858C8.1799 29.7858 8.97278 30.5053 8.97278 31.3929C8.97278 32.2805 8.1799 33.0001 7.20183 33.0001Z" />
    </svg>
</svg>